<svg xmlns="http://www.w3.org/2000/svg" viewBox="0 0 109.26 26.67"><defs><style>.cls-1{fill:#fff;}.cls-2{fill:#f7bc00;}</style></defs><g id="レイヤー_2" data-name="レイヤー 2"><g id="main"><path class="cls-1" d="M83.35,14.78h-11V3.59h11ZM87,16.55V1.85A1.81,1.81,0,0,0,85.18,0H70.47a1.8,1.8,0,0,0-1.81,1.86V16.55a1.79,1.79,0,0,0,1.81,1.82h14.7A1.82,1.82,0,0,0,87,16.55Z"/><path class="cls-1" d="M3.59,3.51V7.43h11.1v3.51H3.59v7.43H0V0H18.37V3.51Z"/><path class="cls-1" d="M38.55,18.37V5.75L33.14,14H30.92L25.48,5.74V18.37H21.92V0H25.6L32,9.48,38.52,0h3.6V18.37Z"/><path class="cls-1" d="M61.09,7.54H49.74V3.31H61.09Zm3.51,9V11A1.81,1.81,0,0,0,62.75,9.2,1.84,1.84,0,0,0,64.6,7.35V1.85A1.81,1.81,0,0,0,62.75,0H48.05a1.81,1.81,0,0,0-1.82,1.85V7.34A1.82,1.82,0,0,0,48.05,9.2,1.8,1.8,0,0,0,46.23,11v5.53a1.8,1.8,0,0,0,1.82,1.82H62.74A1.81,1.81,0,0,0,64.6,16.55Zm-3.51-1.5H49.74V10.83H61.09Z"/><path class="cls-1" d="M90.81,18.37V16.24a1.84,1.84,0,0,1,1-1.63l13.76-8.15V3.59h-11V5.93H90.82V1.85A1.81,1.81,0,0,1,92.64,0h14.7a1.8,1.8,0,0,1,1.84,1.85v5.5A1.86,1.86,0,0,1,108.27,9L97.78,14.89h11.41v3.48Z"/><path class="cls-1" d="M5.16,26.62V24a.71.71,0,0,0-.73-.8.71.71,0,0,0-.73.78v2.68H2.6V24a.7.7,0,0,0-.72-.8.71.71,0,0,0-.73.8v2.66H.05v-4.4H1.12v.41a1.53,1.53,0,0,1,1.1-.46,1.37,1.37,0,0,1,1.16.56,1.68,1.68,0,0,1,1.32-.56,1.52,1.52,0,0,1,1.08.39,1.67,1.67,0,0,1,.48,1.25v2.81Z"/><path class="cls-1" d="M8.45,24.76a.91.91,0,0,0,1,1,1.22,1.22,0,0,0,1-.41l.67.65a2.09,2.09,0,0,1-1.67.69c-1,0-2-.47-2-2.25,0-1.44.78-2.25,1.92-2.25a1.89,1.89,0,0,1,1.91,2.1v.49ZM10,23.54a.77.77,0,0,0-.73-.46.78.78,0,0,0-.74.46,1.4,1.4,0,0,0-.1.47h1.67A1.2,1.2,0,0,0,10,23.54Z"/><path class="cls-1" d="M13.23,24.76a.9.9,0,0,0,1,1,1.22,1.22,0,0,0,1-.41l.66.65a2.09,2.09,0,0,1-1.67.69c-1,0-2-.47-2-2.25,0-1.44.77-2.25,1.91-2.25A1.89,1.89,0,0,1,16,24.27v.49Zm1.57-1.22a.78.78,0,0,0-.74-.46.77.77,0,0,0-.73.46,1.2,1.2,0,0,0-.1.47H14.9A1.4,1.4,0,0,0,14.8,23.54Z"/><path class="cls-1" d="M18.52,26.62a1.19,1.19,0,0,1-1.28-1.26V23.19h-.46v-.84h.46v-1.3h1.1v1.3h.78v.84h-.78v2.1c0,.26.12.4.38.4h.4v.93Z"/><path class="cls-1" d="M24.2,26.62a1.19,1.19,0,0,1-1.27-1.26V23.19h-.46v-.84h.46v-1.3H24v1.3h.77v.84H24v2.1c0,.26.12.4.38.4h.39v.93Z"/><path class="cls-1" d="M28.58,26.62V23.94a.72.72,0,1,0-1.43,0v2.68h-1.1v-6h1.1v2a1.46,1.46,0,0,1,2.52,1.14v2.85Z"/><path class="cls-1" d="M31.76,24.76a.91.91,0,0,0,1,1,1.2,1.2,0,0,0,1-.41l.67.65a2.09,2.09,0,0,1-1.67.69c-1,0-2-.47-2-2.25,0-1.44.78-2.25,1.92-2.25a1.89,1.89,0,0,1,1.91,2.1v.49Zm1.57-1.22a.81.81,0,0,0-1.46,0,1.2,1.2,0,0,0-.11.47h1.68A1.2,1.2,0,0,0,33.33,23.54Z"/><path class="cls-1" d="M43,26.62V24a.73.73,0,1,0-1.46,0v2.68H40.4V24a.73.73,0,1,0-1.46,0v2.66h-1.1v-4.4h1.07v.41a1.53,1.53,0,0,1,1.1-.46,1.36,1.36,0,0,1,1.16.56,1.68,1.68,0,0,1,1.32-.56,1.52,1.52,0,0,1,1.08.39,1.67,1.67,0,0,1,.48,1.25v2.81Z"/><path class="cls-1" d="M47.81,26.62v-.41a1.47,1.47,0,0,1-1.09.46,1.44,1.44,0,0,1-1-.39A1.61,1.61,0,0,1,45.23,25V22.22h1.1v2.66a.7.7,0,0,0,.72.8.71.71,0,0,0,.74-.8V22.22h1.09v4.4Z"/><path class="cls-1" d="M51.76,26.67A2.4,2.4,0,0,1,49.89,26l.72-.72a1.59,1.59,0,0,0,1.17.41c.38,0,.78-.12.78-.45s-.12-.37-.47-.41l-.69-.07c-.79-.07-1.28-.42-1.28-1.23a1.5,1.5,0,0,1,1.69-1.4,2.31,2.31,0,0,1,1.68.52l-.67.68a1.55,1.55,0,0,0-1-.29c-.43,0-.62.2-.62.42s.07.34.46.38l.69.06c.87.09,1.31.55,1.31,1.3C53.63,26.2,52.8,26.67,51.76,26.67Z"/><path class="cls-1" d="M54.68,21.47v-.89H55.8v.89Zm0,5.15v-4.4h1.09v4.4Z"/><path class="cls-1" d="M58.92,26.67c-.88,0-2-.47-2-2.25s1.09-2.25,2-2.25a1.9,1.9,0,0,1,1.45.59l-.75.75a.86.86,0,0,0-.7-.35.76.76,0,0,0-.63.29,1.47,1.47,0,0,0-.24,1,1.54,1.54,0,0,0,.24,1,.78.78,0,0,0,.63.28.88.88,0,0,0,.7-.34l.75.73A1.91,1.91,0,0,1,58.92,26.67Z"/><path class="cls-1" d="M66.47,26.13a1.82,1.82,0,0,1-1.37.54,1.79,1.79,0,0,1-1.36-.54,2.25,2.25,0,0,1-.49-1.71,2.27,2.27,0,0,1,.49-1.71,1.79,1.79,0,0,1,1.36-.54,1.82,1.82,0,0,1,1.37.54,2.27,2.27,0,0,1,.5,1.71A2.25,2.25,0,0,1,66.47,26.13Zm-.85-2.78a.74.74,0,0,0-.52-.19.67.67,0,0,0-.5.19,1.49,1.49,0,0,0-.26,1.07,1.5,1.5,0,0,0,.26,1.07.67.67,0,0,0,.5.19.74.74,0,0,0,.52-.19,1.55,1.55,0,0,0,.25-1.07A1.54,1.54,0,0,0,65.62,23.35Z"/><path class="cls-1" d="M70.47,26.62V24A.73.73,0,1,0,69,24v2.66h-1.1v-4.4H69v.41a1.5,1.5,0,0,1,1.1-.46,1.42,1.42,0,0,1,1,.39,1.64,1.64,0,0,1,.44,1.25v2.81Z"/><path class="cls-1" d="M76.28,26.62A1.19,1.19,0,0,1,75,25.36V23.19h-.47v-.84H75v-1.3h1.1v1.3h.77v.84h-.77v2.1c0,.26.11.4.37.4h.4v.93Z"/><path class="cls-1" d="M80.6,26.62V23.94a.71.71,0,1,0-1.42,0v2.68h-1.1v-6h1.1v2a1.41,1.41,0,0,1,1-.46,1.43,1.43,0,0,1,1.47,1.6v2.85Z"/><path class="cls-1" d="M83.59,24.76a.9.9,0,0,0,1,1,1.22,1.22,0,0,0,1-.41l.66.65a2.08,2.08,0,0,1-1.67.69c-1,0-2-.47-2-2.25,0-1.44.77-2.25,1.91-2.25a1.89,1.89,0,0,1,1.92,2.1v.49Zm1.57-1.22a.78.78,0,0,0-.74-.46.77.77,0,0,0-.73.46,1.2,1.2,0,0,0-.1.47h1.67A1.2,1.2,0,0,0,85.16,23.54Z"/><path class="cls-1" d="M92,23.42a.73.73,0,0,0-1.29.55v2.65h-1.1v-4.4h1.07v.42a1.51,1.51,0,0,1,1.11-.47,1.35,1.35,0,0,1,1,.41Z"/><path class="cls-1" d="M96.11,26.62v-.38a1.35,1.35,0,0,1-1.08.42,1.5,1.5,0,0,1-1.12-.39,1.38,1.38,0,0,1-.36-1c0-.71.48-1.28,1.5-1.28h1v-.22c0-.48-.23-.69-.81-.69a1,1,0,0,0-.85.36l-.7-.68a1.86,1.86,0,0,1,1.59-.61c1.23,0,1.87.52,1.87,1.55v2.9Zm0-1.86h-.86c-.4,0-.62.19-.62.5s.2.51.63.51a.87.87,0,0,0,.69-.21.72.72,0,0,0,.16-.56Z"/><path class="cls-1" d="M100.84,26.62V26.2a1.31,1.31,0,0,1-1.09.47,1.54,1.54,0,0,1-1.08-.4,2.66,2.66,0,0,1-.44-1.85,2.65,2.65,0,0,1,.44-1.85,1.54,1.54,0,0,1,1.08-.4,1.33,1.33,0,0,1,1.07.44v-2h1.09v6Zm-.77-3.46c-.66,0-.75.54-.75,1.26s.09,1.26.75,1.26.75-.55.75-1.26S100.72,23.16,100.07,23.16Z"/><path class="cls-1" d="M103.23,21.47v-.89h1.12v.89Zm0,5.15v-4.4h1.09v4.4Z"/><path class="cls-1" d="M108.76,26.13a1.82,1.82,0,0,1-1.37.54,1.79,1.79,0,0,1-1.36-.54,2.25,2.25,0,0,1-.5-1.71,2.27,2.27,0,0,1,.5-1.71,1.79,1.79,0,0,1,1.36-.54,1.82,1.82,0,0,1,1.37.54,2.27,2.27,0,0,1,.5,1.71A2.25,2.25,0,0,1,108.76,26.13Zm-.85-2.78a.74.74,0,0,0-.52-.19.67.67,0,0,0-.5.19,1.49,1.49,0,0,0-.26,1.07,1.5,1.5,0,0,0,.26,1.07.67.67,0,0,0,.5.19.74.74,0,0,0,.52-.19,1.55,1.55,0,0,0,.25-1.07A1.54,1.54,0,0,0,107.91,23.35Z"/><rect class="cls-2" x="72.32" y="3.59" width="11.03" height="11.18"/></g></g></svg>