<svg xmlns="http://www.w3.org/2000/svg" viewBox="0 0 91.9 36.92"><defs><style>.cls-1{fill:#fff;}</style></defs><g id="レイヤー_2" data-name="レイヤー 2"><g id="main"><path class="cls-1" d="M15.56,28.33a.53.53,0,0,0,.41-.17.56.56,0,0,0,.15-.39.59.59,0,0,0-.15-.4.53.53,0,0,0-.41-.17h-5.1a.57.57,0,0,0-.41.17.52.52,0,0,0-.16.4v8.44a.56.56,0,0,0,.16.41.6.6,0,0,0,.41.16h5.1a.53.53,0,0,0,.41-.17.57.57,0,0,0,.15-.4.59.59,0,0,0-.14-.37.55.55,0,0,0-.42-.19H11V31.9h4.56a.51.51,0,0,0,.41-.18.54.54,0,0,0,.15-.39.56.56,0,0,0-.15-.39.53.53,0,0,0-.41-.17H11V28.33Z"/><path class="cls-1" d="M26.29,36.06l-3.15-8.39a.54.54,0,0,0-.55-.38.52.52,0,0,0-.52.37l-3.15,8.39a.47.47,0,0,0,0,.46.61.61,0,0,0,.31.28.58.58,0,0,0,.19,0,.69.69,0,0,0,.24,0,.59.59,0,0,0,.3-.32l.73-2L25.05,36l.17.44a.53.53,0,0,0,.23.3.61.61,0,0,0,.3.08.57.57,0,0,0,.22,0,.63.63,0,0,0,.3-.28.58.58,0,0,0,0-.43Zm-5.18-2.62,1.48-4,1.95,5.15Z"/><path class="cls-1" d="M35.41,35.65h-4.6V27.91a.55.55,0,0,0-.16-.38.56.56,0,0,0-.82,0,.55.55,0,0,0-.16.38v8.31a.56.56,0,0,0,.17.4.55.55,0,0,0,.39.16h5.18a.52.52,0,0,0,.38-.16.53.53,0,0,0,.18-.4.54.54,0,0,0-.18-.41A.55.55,0,0,0,35.41,35.65Z"/><path class="cls-1" d="M39.63,27.28a.54.54,0,0,0-.41.18.55.55,0,0,0-.15.38v8.4a.55.55,0,0,0,.15.37.54.54,0,0,0,.41.18.57.57,0,0,0,.43-.18.55.55,0,0,0,.15-.37v-8.4a.55.55,0,0,0-.15-.38A.57.57,0,0,0,39.63,27.28Z"/><path class="cls-1" d="M51.33,27.21a.58.58,0,0,0-.43,0,.63.63,0,0,0-.3.32L48,34.69l-2.63-7.16a.6.6,0,0,0-.29-.3.58.58,0,0,0-.43,0,.54.54,0,0,0-.33.3.56.56,0,0,0,0,.42l3.16,8.61v0a.56.56,0,0,0,.53.35.58.58,0,0,0,.54-.38l3.15-8.6a.54.54,0,0,0,0-.43A.52.52,0,0,0,51.33,27.21Z"/><path class="cls-1" d="M60.93,28.33a.55.55,0,0,0,.41-.17.56.56,0,0,0,.15-.39.59.59,0,0,0-.15-.4.57.57,0,0,0-.41-.17H55.82a.56.56,0,0,0-.4.17.53.53,0,0,0-.17.4v8.44a.57.57,0,0,0,.17.41.59.59,0,0,0,.4.16h5.11a.55.55,0,0,0,.41-.17.57.57,0,0,0,.15-.4.59.59,0,0,0-.14-.37.55.55,0,0,0-.42-.19H56.37V31.9h4.56a.52.52,0,0,0,.41-.18.54.54,0,0,0,.15-.39.56.56,0,0,0-.15-.39.57.57,0,0,0-.41-.17H56.37V28.33Z"/><path class="cls-1" d="M71.13,31.07a3.07,3.07,0,0,0-.84-.64,3,3,0,0,0-.56-.23l1.36-2a.53.53,0,0,0,0-.6.56.56,0,0,0-.51-.29H66.23a.54.54,0,0,0-.41.18.57.57,0,0,0-.16.38.53.53,0,0,0,.17.4.56.56,0,0,0,.4.17h3.31L68.27,30.3a.5.5,0,0,0,0,.58.56.56,0,0,0,.5.29,2,2,0,0,1,.85.18,2.37,2.37,0,0,1,.71.49,2.44,2.44,0,0,1,.48.73,2.15,2.15,0,0,1,.18.87,2.18,2.18,0,0,1-.18.89,2.44,2.44,0,0,1-.48.73,2.2,2.2,0,0,1-.7.49,2.14,2.14,0,0,1-1.7,0,2.32,2.32,0,0,1-.7-.49,2.44,2.44,0,0,1-.48-.73,2.25,2.25,0,0,1-.18-.89.56.56,0,0,0-.56-.56.56.56,0,0,0-.58.56,3.36,3.36,0,0,0,1,2.4,3.24,3.24,0,0,0,2.37,1,3.43,3.43,0,0,0,3.11-2.1,3.59,3.59,0,0,0,.25-1.31,3.53,3.53,0,0,0-.25-1.29A3.34,3.34,0,0,0,71.13,31.07Z"/><path class="cls-1" d="M80.67,31.12a3.52,3.52,0,0,0-1.08-.72,3.39,3.39,0,0,0-2-.16l1.26-2.36a.55.55,0,0,0,0-.45.59.59,0,0,0-.29-.35.54.54,0,0,0-.43,0,.59.59,0,0,0-.34.27L75.48,31.7a3.39,3.39,0,0,0-.25,3.05,3.31,3.31,0,0,0,1.8,1.8,3.3,3.3,0,0,0,1.29.26,3.24,3.24,0,0,0,1.27-.26,3.35,3.35,0,0,0,1.08-.72,3.3,3.3,0,0,0,.72-3.63A3.35,3.35,0,0,0,80.67,31.12Zm-4.38,3.2a2,2,0,0,1-.18-.85,2.17,2.17,0,0,1,.18-.86l.16-.3a2.16,2.16,0,0,1,.78-.75,2.13,2.13,0,0,1,1.09-.28,2,2,0,0,1,.84.17,2.34,2.34,0,0,1,.71.48,2.41,2.41,0,0,1,.47.69,2.22,2.22,0,0,1,.17.85,2.11,2.11,0,0,1-.18.86,2.36,2.36,0,0,1-.46.7,2.51,2.51,0,0,1-.71.47,2.07,2.07,0,0,1-1.69,0,2.22,2.22,0,0,1-1.18-1.18Z"/><path class="cls-1" d="M91.55,30.14a5.21,5.21,0,0,0-.79-1.56,3.89,3.89,0,0,0-1.19-1.07,3,3,0,0,0-3.06,0,4.16,4.16,0,0,0-1.19,1.08,5.23,5.23,0,0,0-.77,1.55,6.09,6.09,0,0,0,0,3.65,5.31,5.31,0,0,0,.78,1.56,4,4,0,0,0,1.19,1.07,3,3,0,0,0,1.53.41,3.07,3.07,0,0,0,1.52-.41,3.89,3.89,0,0,0,1.19-1.07,5.33,5.33,0,0,0,.79-1.56A6.31,6.31,0,0,0,91.9,32,6.31,6.31,0,0,0,91.55,30.14Zm-3.5-1.92a1.91,1.91,0,0,1,1,.26,2.56,2.56,0,0,1,.85.77,4,4,0,0,1,.61,1.24A5,5,0,0,1,90.67,32a5.09,5.09,0,0,1-.21,1.48,3.83,3.83,0,0,1-.61,1.23,2.71,2.71,0,0,1-.85.78,1.9,1.9,0,0,1-1,.25,2,2,0,0,1-1-.25,2.8,2.8,0,0,1-.84-.78,4,4,0,0,1-.61-1.23A5.09,5.09,0,0,1,85.41,32a5,5,0,0,1,.22-1.47,4.22,4.22,0,0,1,.61-1.24,2.64,2.64,0,0,1,.84-.77A1.88,1.88,0,0,1,88.05,28.22Z"/><path class="cls-1" d="M6.06,35.2c-.13-.21-.27-.45-.43-.7l-.48-.74A5.32,5.32,0,0,0,4.54,33l-.18-.19.13-.07A3,3,0,0,0,5,32.36a3,3,0,0,0,.82-1,2.39,2.39,0,0,0,.31-1.2A2.44,2.44,0,0,0,5.8,29a3.36,3.36,0,0,0-2-1.56,4.38,4.38,0,0,0-1.35-.21l-1.9,0a.56.56,0,0,0-.34.12,0,0,0,0,0,0,0,.3.3,0,0,0-.08.08.47.47,0,0,0-.13.34v8.46a.59.59,0,0,0,.16.4.61.61,0,0,0,.82,0,.55.55,0,0,0,.16-.4v-3H2.69l.19,0,.11,0a1.13,1.13,0,0,1,.24.12,3.54,3.54,0,0,1,.43.36,3.84,3.84,0,0,1,.52.68c.15.25.31.49.47.74l.43.69.43.71a.54.54,0,0,0,.5.29.55.55,0,0,0,.28-.07h0a.57.57,0,0,0,.26-.33h0a.54.54,0,0,0-.06-.43ZM1.14,32.08V28.34l1.33,0a3.21,3.21,0,0,1,1,.15,2.88,2.88,0,0,1,.8.42,1.72,1.72,0,0,1,.52.59A1.26,1.26,0,0,1,5,30.2a1.39,1.39,0,0,1-.15.63,2,2,0,0,1-.44.56,2.79,2.79,0,0,1-.69.43,3,3,0,0,1-.85.22h-.1l-.13,0H1.14ZM6.3,36.29Z"/><polygon class="cls-1" points="38.14 8.82 39.35 10.91 45.65 0 26.26 0 25.05 2.09 42.03 2.09 38.14 8.82"/><polygon class="cls-1" points="37.35 6.12 38.56 4.03 25.96 4.03 35.65 20.82 38.06 20.82 29.58 6.12 37.35 6.12"/><path class="cls-1" d="M49.13,2.12h6.63c3.1,0,3.73.85,4.18,1.87s.38,3.15-.79,4a5.44,5.44,0,0,1-3.31.76H47.6l-1.23,2.13h9.88l7.74,10h2.86l-8-10.34a5.7,5.7,0,0,0,1.56-.78c2.19-1.56,2.28-4.81,1.5-6.57C60.9.91,59.13,0,55.76,0H48l0,0V0L39.32,14.94,35.43,8.2H33l6.3,10.92Z"/></g></g></svg>